<svg role="img" viewBox="0 0 393 467" xmlns="http://www.w3.org/2000/svg"><title>Askable</title><path fill="#ffffff" fill-rule="evenodd" clip-rule="evenodd" d="M196.637 0.0011049C349.033 0.255711 392.874 44.0835 392.62 195.952C392.518 257.163 385.287 300.774 366.744 331.038C326.384 416.08 236.635 456.705 195.859 466.406L195.984 391.248C43.5757 390.993 -0.252365 347.171 0.00109145 195.296C0.254396 43.4274 44.2292 -0.253487 196.637 0.0011049ZM195.839 162.353C174.125 162.344 156.534 144.806 156.543 123.176C156.552 101.553 174.157 84.0225 195.871 84.0317C217.578 84.0403 235.176 101.585 235.166 123.208C235.158 144.838 217.546 162.362 195.839 162.353ZM195.828 189.275C228.392 189.289 281.001 196.032 280.987 228.471C280.975 260.914 245.819 300.252 195.782 300.23C145.738 300.208 110.622 260.846 110.635 228.4C110.649 195.963 163.258 189.262 195.828 189.275Z"/></svg>
