<svg width="122" height="61" viewBox="0 0 122 61" fill="none" xmlns="http://www.w3.org/2000/svg" aria-hidden="true">
  <path d="M101.215 11.377C100.47 11.377 99.5779 11.377 98.8336 11.5244L94.517 19.0413C96.452 17.8621 98.8336 17.2726 101.215 17.2726C108.955 17.2726 115.356 23.6104 115.356 31.2747C115.356 38.939 108.955 45.2767 101.215 45.2767C93.4751 45.2767 87.2236 39.0864 87.0747 31.4221L82.6093 38.939C85.5863 46.161 92.8797 51.1723 101.067 51.1723C112.081 51.1723 121.161 42.1815 121.161 31.2747C121.309 20.3678 112.23 11.377 101.215 11.377Z" fill="white"/>
  <path d="M40.4855 32.159L43.909 26.2634L51.649 39.3812L60.5797 24.1999L69.5105 39.3812L84.8417 13.5878C85.5859 12.2613 87.0743 11.377 88.7117 11.377H93.0282L69.5105 51.1723L60.5797 35.9911L51.649 51.1723L40.4855 32.159Z" fill="white"/>
  <path d="M46.8862 11.377L23.3686 51.1723L-0.000240326 11.377H4.31629C5.9536 11.377 7.44206 12.2613 8.18629 13.5878L23.3686 39.5285L38.6997 13.5878C39.444 12.2613 40.9325 11.377 42.5698 11.377H46.8862Z" fill="white"/>
</svg>
